<svg xmlns="http://www.w3.org/2000/svg" version="1.1" xmlns:xlink="http://www.w3.org/1999/xlink" xmlns:svgjs="http://svgjs.dev/svgjs" width="450" height="600" preserveAspectRatio="none" viewBox="0 0 450 600">
    <g mask="url(&quot;#SvgjsMask1060&quot;)" fill="none">
        <rect width="450" height="600" x="0" y="0" fill="#0e2a47"></rect>
        <path d="M-20.25 401.32L-20.25 401.32" stroke="#132e65" stroke-width="1.5"></path>
        <path d="M-20.25 401.32L19.01 425.8" stroke="#132e65" stroke-width="1.5"></path>
        <path d="M-20.25 401.32L-45.55 504.19" stroke="#132e65" stroke-width="1.5"></path>
        <path d="M-20.25 401.32L27.93 495.7" stroke="#132e65" stroke-width="1.5"></path>
        <path d="M-20.25 401.32L105.25 415.29" stroke="#132e65" stroke-width="1.5"></path>
        <path d="M-45.55 504.19L-45.55 504.19" stroke="#132e65" stroke-width="1.5"></path>
        <path d="M-45.55 504.19L-35.61 548.92" stroke="#132e65" stroke-width="1.5"></path>
        <path d="M-45.55 504.19L27.93 495.7" stroke="#132e65" stroke-width="1.5"></path>
        <path d="M-35.61 548.92L-35.61 548.92" stroke="#132e65" stroke-width="1.5"></path>
        <path d="M-35.61 548.92L21.2 552.22" stroke="#132e65" stroke-width="1.5"></path>
        <path d="M-35.61 548.92L-40.8 628.63" stroke="#132e65" stroke-width="1.5"></path>
        <path d="M-35.61 548.92L27.93 495.7" stroke="#132e65" stroke-width="1.5"></path>
        <path d="M-40.8 628.63L-40.8 628.63" stroke="#132e65" stroke-width="1.5"></path>
        <path d="M-40.8 628.63L46.75 643.53" stroke="#132e65" stroke-width="1.5"></path>
        <path d="M-40.8 628.63L21.2 552.22" stroke="#132e65" stroke-width="1.5"></path>
        <path d="M-40.8 628.63L-45.55 504.19" stroke="#132e65" stroke-width="1.5"></path>
        <path d="M-40.8 628.63L27.93 495.7" stroke="#132e65" stroke-width="1.5"></path>
        <path d="M19.01 425.8L19.01 425.8" stroke="#132e65" stroke-width="1.5"></path>
        <path d="M19.01 425.8L27.93 495.7" stroke="#132e65" stroke-width="1.5"></path>
        <path d="M19.01 425.8L105.25 415.29" stroke="#132e65" stroke-width="1.5"></path>
        <path d="M19.01 425.8L-45.55 504.19" stroke="#132e65" stroke-width="1.5"></path>
        <path d="M19.01 425.8L118.24 477.52" stroke="#132e65" stroke-width="1.5"></path>
        <path d="M27.93 495.7L27.93 495.7" stroke="#132e65" stroke-width="1.5"></path>
        <path d="M27.93 495.7L21.2 552.22" stroke="#132e65" stroke-width="1.5"></path>
        <path d="M21.2 552.22L21.2 552.22" stroke="#132e65" stroke-width="1.5"></path>
        <path d="M46.75 643.53L46.75 643.53" stroke="#132e65" stroke-width="1.5"></path>
        <path d="M46.75 643.53L116.61 652.02" stroke="#132e65" stroke-width="1.5"></path>
        <path d="M46.75 643.53L21.2 552.22" stroke="#132e65" stroke-width="1.5"></path>
        <path d="M46.75 643.53L94.42 556" stroke="#132e65" stroke-width="1.5"></path>
        <path d="M46.75 643.53L-35.61 548.92" stroke="#132e65" stroke-width="1.5"></path>
        <path d="M109.35 343.77L109.35 343.77" stroke="#132e65" stroke-width="1.5"></path>
        <path d="M109.35 343.77L105.25 415.29" stroke="#132e65" stroke-width="1.5"></path>
        <path d="M109.35 343.77L182.39 346.69" stroke="#132e65" stroke-width="1.5"></path>
        <path d="M109.35 343.77L169.55 401.8" stroke="#132e65" stroke-width="1.5"></path>
        <path d="M109.35 343.77L19.01 425.8" stroke="#132e65" stroke-width="1.5"></path>
        <path d="M105.25 415.29L105.25 415.29" stroke="#132e65" stroke-width="1.5"></path>
        <path d="M105.25 415.29L118.24 477.52" stroke="#132e65" stroke-width="1.5"></path>
        <path d="M105.25 415.29L169.55 401.8" stroke="#132e65" stroke-width="1.5"></path>
        <path d="M118.24 477.52L118.24 477.52" stroke="#132e65" stroke-width="1.5"></path>
        <path d="M118.24 477.52L182.54 493.74" stroke="#132e65" stroke-width="1.5"></path>
        <path d="M118.24 477.52L94.42 556" stroke="#132e65" stroke-width="1.5"></path>
        <path d="M118.24 477.52L169.55 401.8" stroke="#132e65" stroke-width="1.5"></path>
        <path d="M94.42 556L94.42 556" stroke="#132e65" stroke-width="1.5"></path>
        <path d="M94.42 556L21.2 552.22" stroke="#132e65" stroke-width="1.5"></path>
        <path d="M94.42 556L173.21 556.36" stroke="#132e65" stroke-width="1.5"></path>
        <path d="M116.61 652.02L116.61 652.02" stroke="#132e65" stroke-width="1.5"></path>
        <path d="M116.61 652.02L198.61 634.07" stroke="#132e65" stroke-width="1.5"></path>
        <path d="M116.61 652.02L94.42 556" stroke="#132e65" stroke-width="1.5"></path>
        <path d="M116.61 652.02L173.21 556.36" stroke="#132e65" stroke-width="1.5"></path>
        <path d="M116.61 652.02L21.2 552.22" stroke="#132e65" stroke-width="1.5"></path>
        <path d="M116.61 652.02L-40.8 628.63" stroke="#132e65" stroke-width="1.5"></path>
        <path d="M182.39 346.69L182.39 346.69" stroke="#132e65" stroke-width="1.5"></path>
        <path d="M182.39 346.69L169.55 401.8" stroke="#132e65" stroke-width="1.5"></path>
        <path d="M182.39 346.69L254.43 333.87" stroke="#132e65" stroke-width="1.5"></path>
        <path d="M182.39 346.69L259.51 281.11" stroke="#132e65" stroke-width="1.5"></path>
        <path d="M169.55 401.8L169.55 401.8" stroke="#132e65" stroke-width="1.5"></path>
        <path d="M169.55 401.8L182.54 493.74" stroke="#132e65" stroke-width="1.5"></path>
        <path d="M169.55 401.8L273.11 421.3" stroke="#132e65" stroke-width="1.5"></path>
        <path d="M182.54 493.74L182.54 493.74" stroke="#132e65" stroke-width="1.5"></path>
        <path d="M182.54 493.74L173.21 556.36" stroke="#132e65" stroke-width="1.5"></path>
        <path d="M182.54 493.74L255.37 481.44" stroke="#132e65" stroke-width="1.5"></path>
        <path d="M173.21 556.36L173.21 556.36" stroke="#132e65" stroke-width="1.5"></path>
        <path d="M173.21 556.36L198.61 634.07" stroke="#132e65" stroke-width="1.5"></path>
        <path d="M173.21 556.36L118.24 477.52" stroke="#132e65" stroke-width="1.5"></path>
        <path d="M173.21 556.36L273.74 561.72" stroke="#132e65" stroke-width="1.5"></path>
        <path d="M198.61 634.07L198.61 634.07" stroke="#132e65" stroke-width="1.5"></path>
        <path d="M198.61 634.07L273.74 561.72" stroke="#132e65" stroke-width="1.5"></path>
        <path d="M266.12 94.41L266.12 94.41" stroke="#132e65" stroke-width="1.5"></path>
        <path d="M266.12 94.41L280.13 180.44" stroke="#132e65" stroke-width="1.5"></path>
        <path d="M266.12 94.41L340.15 23.84" stroke="#132e65" stroke-width="1.5"></path>
        <path d="M280.13 180.44L280.13 180.44" stroke="#132e65" stroke-width="1.5"></path>
        <path d="M280.13 180.44L335.05 172" stroke="#132e65" stroke-width="1.5"></path>
        <path d="M280.13 180.44L259.51 281.11" stroke="#132e65" stroke-width="1.5"></path>
        <path d="M280.13 180.44L400.76 122.3" stroke="#132e65" stroke-width="1.5"></path>
        <path d="M259.51 281.11L259.51 281.11" stroke="#132e65" stroke-width="1.5"></path>
        <path d="M259.51 281.11L254.43 333.87" stroke="#132e65" stroke-width="1.5"></path>
        <path d="M254.43 333.87L254.43 333.87" stroke="#132e65" stroke-width="1.5"></path>
        <path d="M273.11 421.3L273.11 421.3" stroke="#132e65" stroke-width="1.5"></path>
        <path d="M273.11 421.3L255.37 481.44" stroke="#132e65" stroke-width="1.5"></path>
        <path d="M273.11 421.3L339.61 403.63" stroke="#132e65" stroke-width="1.5"></path>
        <path d="M273.11 421.3L254.43 333.87" stroke="#132e65" stroke-width="1.5"></path>
        <path d="M273.11 421.3L341.89 488.15" stroke="#132e65" stroke-width="1.5"></path>
        <path d="M273.11 421.3L342.12 346.91" stroke="#132e65" stroke-width="1.5"></path>
        <path d="M255.37 481.44L255.37 481.44" stroke="#132e65" stroke-width="1.5"></path>
        <path d="M255.37 481.44L273.74 561.72" stroke="#132e65" stroke-width="1.5"></path>
        <path d="M255.37 481.44L341.89 488.15" stroke="#132e65" stroke-width="1.5"></path>
        <path d="M255.37 481.44L332.76 560.24" stroke="#132e65" stroke-width="1.5"></path>
        <path d="M255.37 481.44L173.21 556.36" stroke="#132e65" stroke-width="1.5"></path>
        <path d="M273.74 561.72L273.74 561.72" stroke="#132e65" stroke-width="1.5"></path>
        <path d="M273.74 561.72L332.76 560.24" stroke="#132e65" stroke-width="1.5"></path>
        <path d="M273.74 561.72L341.89 488.15" stroke="#132e65" stroke-width="1.5"></path>
        <path d="M340.52 -38.85L340.52 -38.85" stroke="#132e65" stroke-width="1.5"></path>
        <path d="M340.52 -38.85L340.15 23.84" stroke="#132e65" stroke-width="1.5"></path>
        <path d="M340.52 -38.85L414.78 42.6" stroke="#132e65" stroke-width="1.5"></path>
        <path d="M340.15 23.84L340.15 23.84" stroke="#132e65" stroke-width="1.5"></path>
        <path d="M340.15 23.84L414.78 42.6" stroke="#132e65" stroke-width="1.5"></path>
        <path d="M340.15 23.84L400.76 122.3" stroke="#132e65" stroke-width="1.5"></path>
        <path d="M340.15 23.84L472.75 39.91" stroke="#132e65" stroke-width="1.5"></path>
        <path d="M335.05 172L335.05 172" stroke="#132e65" stroke-width="1.5"></path>
        <path d="M335.05 172L400.76 122.3" stroke="#132e65" stroke-width="1.5"></path>
        <path d="M335.05 172L429.71 195.46" stroke="#132e65" stroke-width="1.5"></path>
        <path d="M335.05 172L266.12 94.41" stroke="#132e65" stroke-width="1.5"></path>
        <path d="M335.05 172L411.96 247.79" stroke="#132e65" stroke-width="1.5"></path>
        <path d="M335.05 172L259.51 281.11" stroke="#132e65" stroke-width="1.5"></path>
        <path d="M342.12 346.91L342.12 346.91" stroke="#132e65" stroke-width="1.5"></path>
        <path d="M342.12 346.91L339.61 403.63" stroke="#132e65" stroke-width="1.5"></path>
        <path d="M342.12 346.91L410.06 322.37" stroke="#132e65" stroke-width="1.5"></path>
        <path d="M339.61 403.63L339.61 403.63" stroke="#132e65" stroke-width="1.5"></path>
        <path d="M339.61 403.63L406.31 416.03" stroke="#132e65" stroke-width="1.5"></path>
        <path d="M339.61 403.63L341.89 488.15" stroke="#132e65" stroke-width="1.5"></path>
        <path d="M341.89 488.15L341.89 488.15" stroke="#132e65" stroke-width="1.5"></path>
        <path d="M341.89 488.15L332.76 560.24" stroke="#132e65" stroke-width="1.5"></path>
        <path d="M341.89 488.15L425.63 494.03" stroke="#132e65" stroke-width="1.5"></path>
        <path d="M332.76 560.24L332.76 560.24" stroke="#132e65" stroke-width="1.5"></path>
        <path d="M344.72 637.33L344.72 637.33" stroke="#132e65" stroke-width="1.5"></path>
        <path d="M344.72 637.33L421.42 629.3" stroke="#132e65" stroke-width="1.5"></path>
        <path d="M344.72 637.33L332.76 560.24" stroke="#132e65" stroke-width="1.5"></path>
        <path d="M414.78 42.6L414.78 42.6" stroke="#132e65" stroke-width="1.5"></path>
        <path d="M414.78 42.6L472.75 39.91" stroke="#132e65" stroke-width="1.5"></path>
        <path d="M400.76 122.3L400.76 122.3" stroke="#132e65" stroke-width="1.5"></path>
        <path d="M400.76 122.3L429.71 195.46" stroke="#132e65" stroke-width="1.5"></path>
        <path d="M400.76 122.3L414.78 42.6" stroke="#132e65" stroke-width="1.5"></path>
        <path d="M400.76 122.3L501.06 129.69" stroke="#132e65" stroke-width="1.5"></path>
        <path d="M429.71 195.46L429.71 195.46" stroke="#132e65" stroke-width="1.5"></path>
        <path d="M429.71 195.46L470.87 195.35" stroke="#132e65" stroke-width="1.5"></path>
        <path d="M429.71 195.46L411.96 247.79" stroke="#132e65" stroke-width="1.5"></path>
        <path d="M429.71 195.46L478.01 247.37" stroke="#132e65" stroke-width="1.5"></path>
        <path d="M429.71 195.46L501.06 129.69" stroke="#132e65" stroke-width="1.5"></path>
        <path d="M411.96 247.79L411.96 247.79" stroke="#132e65" stroke-width="1.5"></path>
        <path d="M411.96 247.79L478.01 247.37" stroke="#132e65" stroke-width="1.5"></path>
        <path d="M411.96 247.79L410.06 322.37" stroke="#132e65" stroke-width="1.5"></path>
        <path d="M411.96 247.79L470.87 195.35" stroke="#132e65" stroke-width="1.5"></path>
        <path d="M411.96 247.79L481.38 321.61" stroke="#132e65" stroke-width="1.5"></path>
        <path d="M410.06 322.37L410.06 322.37" stroke="#132e65" stroke-width="1.5"></path>
        <path d="M410.06 322.37L481.38 321.61" stroke="#132e65" stroke-width="1.5"></path>
        <path d="M410.06 322.37L406.31 416.03" stroke="#132e65" stroke-width="1.5"></path>
        <path d="M410.06 322.37L478.01 247.37" stroke="#132e65" stroke-width="1.5"></path>
        <path d="M410.06 322.37L339.61 403.63" stroke="#132e65" stroke-width="1.5"></path>
        <path d="M406.31 416.03L406.31 416.03" stroke="#132e65" stroke-width="1.5"></path>
        <path d="M406.31 416.03L468.89 431.12" stroke="#132e65" stroke-width="1.5"></path>
        <path d="M425.63 494.03L425.63 494.03" stroke="#132e65" stroke-width="1.5"></path>
        <path d="M425.63 494.03L497.31 494" stroke="#132e65" stroke-width="1.5"></path>
        <path d="M425.63 494.03L468.89 431.12" stroke="#132e65" stroke-width="1.5"></path>
        <path d="M425.63 494.03L406.31 416.03" stroke="#132e65" stroke-width="1.5"></path>
        <path d="M404.93 576.02L404.93 576.02" stroke="#132e65" stroke-width="1.5"></path>
        <path d="M404.93 576.02L421.42 629.3" stroke="#132e65" stroke-width="1.5"></path>
        <path d="M404.93 576.02L332.76 560.24" stroke="#132e65" stroke-width="1.5"></path>
        <path d="M404.93 576.02L425.63 494.03" stroke="#132e65" stroke-width="1.5"></path>
        <path d="M404.93 576.02L344.72 637.33" stroke="#132e65" stroke-width="1.5"></path>
        <path d="M404.93 576.02L500.66 545.11" stroke="#132e65" stroke-width="1.5"></path>
        <path d="M404.93 576.02L341.89 488.15" stroke="#132e65" stroke-width="1.5"></path>
        <path d="M421.42 629.3L421.42 629.3" stroke="#132e65" stroke-width="1.5"></path>
        <path d="M421.42 629.3L487.4 650.83" stroke="#132e65" stroke-width="1.5"></path>
        <path d="M421.42 629.3L332.76 560.24" stroke="#132e65" stroke-width="1.5"></path>
        <path d="M421.42 629.3L500.66 545.11" stroke="#132e65" stroke-width="1.5"></path>
        <path d="M421.42 629.3L425.63 494.03" stroke="#132e65" stroke-width="1.5"></path>
        <path d="M469.45 -35.44L469.45 -35.44" stroke="#132e65" stroke-width="1.5"></path>
        <path d="M469.45 -35.44L472.75 39.91" stroke="#132e65" stroke-width="1.5"></path>
        <path d="M469.45 -35.44L414.78 42.6" stroke="#132e65" stroke-width="1.5"></path>
        <path d="M469.45 -35.44L340.52 -38.85" stroke="#132e65" stroke-width="1.5"></path>
        <path d="M469.45 -35.44L340.15 23.84" stroke="#132e65" stroke-width="1.5"></path>
        <path d="M469.45 -35.44L501.06 129.69" stroke="#132e65" stroke-width="1.5"></path>
        <path d="M472.75 39.91L472.75 39.91" stroke="#132e65" stroke-width="1.5"></path>
        <path d="M501.06 129.69L501.06 129.69" stroke="#132e65" stroke-width="1.5"></path>
        <path d="M501.06 129.69L470.87 195.35" stroke="#132e65" stroke-width="1.5"></path>
        <path d="M501.06 129.69L472.75 39.91" stroke="#132e65" stroke-width="1.5"></path>
        <path d="M501.06 129.69L478.01 247.37" stroke="#132e65" stroke-width="1.5"></path>
        <path d="M501.06 129.69L414.78 42.6" stroke="#132e65" stroke-width="1.5"></path>
        <path d="M470.87 195.35L470.87 195.35" stroke="#132e65" stroke-width="1.5"></path>
        <path d="M470.87 195.35L478.01 247.37" stroke="#132e65" stroke-width="1.5"></path>
        <path d="M478.01 247.37L478.01 247.37" stroke="#132e65" stroke-width="1.5"></path>
        <path d="M481.38 321.61L481.38 321.61" stroke="#132e65" stroke-width="1.5"></path>
        <path d="M481.38 321.61L478.01 247.37" stroke="#132e65" stroke-width="1.5"></path>
        <path d="M481.38 321.61L468.89 431.12" stroke="#132e65" stroke-width="1.5"></path>
        <path d="M481.38 321.61L406.31 416.03" stroke="#132e65" stroke-width="1.5"></path>
        <path d="M481.38 321.61L470.87 195.35" stroke="#132e65" stroke-width="1.5"></path>
        <path d="M468.89 431.12L468.89 431.12" stroke="#132e65" stroke-width="1.5"></path>
        <path d="M468.89 431.12L497.31 494" stroke="#132e65" stroke-width="1.5"></path>
        <path d="M497.31 494L497.31 494" stroke="#132e65" stroke-width="1.5"></path>
        <path d="M497.31 494L500.66 545.11" stroke="#132e65" stroke-width="1.5"></path>
        <path d="M500.66 545.11L500.66 545.11" stroke="#132e65" stroke-width="1.5"></path>
        <path d="M500.66 545.11L425.63 494.03" stroke="#132e65" stroke-width="1.5"></path>
        <path d="M500.66 545.11L487.4 650.83" stroke="#132e65" stroke-width="1.5"></path>
        <path d="M487.4 650.83L487.4 650.83" stroke="#132e65" stroke-width="1.5"></path>
        <path d="M487.4 650.83L404.93 576.02" stroke="#132e65" stroke-width="1.5"></path>
        <path d="M487.4 650.83L344.72 637.33" stroke="#132e65" stroke-width="1.5"></path>
        <path d="M487.4 650.83L497.31 494" stroke="#132e65" stroke-width="1.5"></path>
        <circle r="5" cx="-20.25" cy="401.32" fill="#132e65"></circle>
        <circle r="5" cx="-45.55" cy="504.19" fill="#132e65"></circle>
        <circle r="5" cx="-35.61" cy="548.92" fill="#132e65"></circle>
        <circle r="5" cx="-40.8" cy="628.63" fill="#132e65"></circle>
        <circle r="5" cx="19.01" cy="425.8" fill="#132e65"></circle>
        <circle r="5" cx="27.93" cy="495.7" fill="#132e65"></circle>
        <circle r="5" cx="21.2" cy="552.22" fill="#132e65"></circle>
        <circle r="5" cx="46.75" cy="643.53" fill="#132e65"></circle>
        <circle r="5" cx="109.35" cy="343.77" fill="#132e65"></circle>
        <circle r="5" cx="105.25" cy="415.29" fill="#132e65"></circle>
        <circle r="5" cx="118.24" cy="477.52" fill="#132e65"></circle>
        <circle r="5" cx="94.42" cy="556" fill="#132e65"></circle>
        <circle r="5" cx="116.61" cy="652.02" fill="#132e65"></circle>
        <circle r="5" cx="182.39" cy="346.69" fill="#132e65"></circle>
        <circle r="5" cx="169.55" cy="401.8" fill="#132e65"></circle>
        <circle r="5" cx="182.54" cy="493.74" fill="#132e65"></circle>
        <circle r="5" cx="173.21" cy="556.36" fill="#132e65"></circle>
        <circle r="5" cx="198.61" cy="634.07" fill="#132e65"></circle>
        <circle r="5" cx="266.12" cy="94.41" fill="#132e65"></circle>
        <circle r="5" cx="280.13" cy="180.44" fill="#132e65"></circle>
        <circle r="5" cx="259.51" cy="281.11" fill="#132e65"></circle>
        <circle r="5" cx="254.43" cy="333.87" fill="#132e65"></circle>
        <circle r="5" cx="273.11" cy="421.3" fill="#132e65"></circle>
        <circle r="5" cx="255.37" cy="481.44" fill="#132e65"></circle>
        <circle r="5" cx="273.74" cy="561.72" fill="#132e65"></circle>
        <circle r="5" cx="340.52" cy="-38.85" fill="#132e65"></circle>
        <circle r="5" cx="340.15" cy="23.84" fill="#132e65"></circle>
        <circle r="5" cx="335.05" cy="172" fill="#132e65"></circle>
        <circle r="5" cx="342.12" cy="346.91" fill="#132e65"></circle>
        <circle r="5" cx="339.61" cy="403.63" fill="#132e65"></circle>
        <circle r="5" cx="341.89" cy="488.15" fill="#132e65"></circle>
        <circle r="5" cx="332.76" cy="560.24" fill="#132e65"></circle>
        <circle r="5" cx="344.72" cy="637.33" fill="#132e65"></circle>
        <circle r="5" cx="414.78" cy="42.6" fill="#132e65"></circle>
        <circle r="5" cx="400.76" cy="122.3" fill="#132e65"></circle>
        <circle r="5" cx="429.71" cy="195.46" fill="#132e65"></circle>
        <circle r="5" cx="411.96" cy="247.79" fill="#132e65"></circle>
        <circle r="5" cx="410.06" cy="322.37" fill="#132e65"></circle>
        <circle r="5" cx="406.31" cy="416.03" fill="#132e65"></circle>
        <circle r="5" cx="425.63" cy="494.03" fill="#132e65"></circle>
        <circle r="5" cx="404.93" cy="576.02" fill="#132e65"></circle>
        <circle r="5" cx="421.42" cy="629.3" fill="#132e65"></circle>
        <circle r="5" cx="469.45" cy="-35.44" fill="#132e65"></circle>
        <circle r="5" cx="472.75" cy="39.91" fill="#132e65"></circle>
        <circle r="5" cx="501.06" cy="129.69" fill="#132e65"></circle>
        <circle r="5" cx="470.87" cy="195.35" fill="#132e65"></circle>
        <circle r="5" cx="478.01" cy="247.37" fill="#132e65"></circle>
        <circle r="5" cx="481.38" cy="321.61" fill="#132e65"></circle>
        <circle r="5" cx="468.89" cy="431.12" fill="#132e65"></circle>
        <circle r="5" cx="497.31" cy="494" fill="#132e65"></circle>
        <circle r="5" cx="500.66" cy="545.11" fill="#132e65"></circle>
        <circle r="5" cx="487.4" cy="650.83" fill="#132e65"></circle>
        <path d="M-54.63 656.19L-54.63 656.19" stroke="hsl(228.5, 77.2%, 51.5%)" stroke-width="1.5"></path>
        <path d="M-54.63 656.19L-19.9 551.87" stroke="hsl(228.5, 77.2%, 51.5%)" stroke-width="1.5"></path>
        <path d="M-54.63 656.19L53.87 631.67" stroke="hsl(228.5, 77.2%, 51.5%)" stroke-width="1.5"></path>
        <path d="M-54.63 656.19L35.76 553.45" stroke="hsl(228.5, 77.2%, 51.5%)" stroke-width="1.5"></path>
        <path d="M-54.63 656.19L-19.28 492.21" stroke="hsl(228.5, 77.2%, 51.5%)" stroke-width="1.5"></path>
        <path d="M-54.63 656.19L125.46 642.08" stroke="hsl(228.5, 77.2%, 51.5%)" stroke-width="1.5"></path>
        <path d="M109.08 477.03L109.08 477.03" stroke="hsl(228.5, 77.2%, 51.5%)" stroke-width="1.5"></path>
        <path d="M109.08 477.03L100.1 544.71" stroke="hsl(228.5, 77.2%, 51.5%)" stroke-width="1.5"></path>
        <path d="M109.08 477.03L193.77 487.62" stroke="hsl(228.5, 77.2%, 51.5%)" stroke-width="1.5"></path>
        <path d="M109.08 477.03L35.76 553.45" stroke="hsl(228.5, 77.2%, 51.5%)" stroke-width="1.5"></path>
        <path d="M109.08 477.03L194.55 408.92" stroke="hsl(228.5, 77.2%, 51.5%)" stroke-width="1.5"></path>
        <path d="M125.46 642.08L125.46 642.08" stroke="hsl(228.5, 77.2%, 51.5%)" stroke-width="1.5"></path>
        <path d="M125.46 642.08L180.12 646.85" stroke="hsl(228.5, 77.2%, 51.5%)" stroke-width="1.5"></path>
        <path d="M125.46 642.08L53.87 631.67" stroke="hsl(228.5, 77.2%, 51.5%)" stroke-width="1.5"></path>
        <path d="M125.46 642.08L100.1 544.71" stroke="hsl(228.5, 77.2%, 51.5%)" stroke-width="1.5"></path>
        <path d="M125.46 642.08L198.11 558.84" stroke="hsl(228.5, 77.2%, 51.5%)" stroke-width="1.5"></path>
        <path d="M193.77 487.62L193.77 487.62" stroke="hsl(228.5, 77.2%, 51.5%)" stroke-width="1.5"></path>
        <path d="M193.77 487.62L249.47 469.37" stroke="hsl(228.5, 77.2%, 51.5%)" stroke-width="1.5"></path>
        <path d="M193.77 487.62L198.11 558.84" stroke="hsl(228.5, 77.2%, 51.5%)" stroke-width="1.5"></path>
        <path d="M193.77 487.62L194.55 408.92" stroke="hsl(228.5, 77.2%, 51.5%)" stroke-width="1.5"></path>
        <path d="M193.77 487.62L100.1 544.71" stroke="hsl(228.5, 77.2%, 51.5%)" stroke-width="1.5"></path>
        <path d="M198.11 558.84L198.11 558.84" stroke="hsl(228.5, 77.2%, 51.5%)" stroke-width="1.5"></path>
        <path d="M198.11 558.84L180.12 646.85" stroke="hsl(228.5, 77.2%, 51.5%)" stroke-width="1.5"></path>
        <path d="M198.11 558.84L100.1 544.71" stroke="hsl(228.5, 77.2%, 51.5%)" stroke-width="1.5"></path>
        <path d="M428.03 129.23L428.03 129.23" stroke="hsl(228.5, 77.2%, 51.5%)" stroke-width="1.5"></path>
        <path d="M428.03 129.23L417.81 199.37" stroke="hsl(228.5, 77.2%, 51.5%)" stroke-width="1.5"></path>
        <path d="M428.03 129.23L355.57 104.1" stroke="hsl(228.5, 77.2%, 51.5%)" stroke-width="1.5"></path>
        <path d="M417.81 199.37L417.81 199.37" stroke="hsl(228.5, 77.2%, 51.5%)" stroke-width="1.5"></path>
        <path d="M417.81 199.37L396.85 274.45" stroke="hsl(228.5, 77.2%, 51.5%)" stroke-width="1.5"></path>
        <path d="M417.81 199.37L492.5 176.98" stroke="hsl(228.5, 77.2%, 51.5%)" stroke-width="1.5"></path>
        <path d="M417.81 199.37L355.28 247.55" stroke="hsl(228.5, 77.2%, 51.5%)" stroke-width="1.5"></path>
        <path d="M486.92 569.53L486.92 569.53" stroke="hsl(228.5, 77.2%, 51.5%)" stroke-width="1.5"></path>
        <path d="M486.92 569.53L470.78 633.07" stroke="hsl(228.5, 77.2%, 51.5%)" stroke-width="1.5"></path>
        <path d="M486.92 569.53L504.19 502.85" stroke="hsl(228.5, 77.2%, 51.5%)" stroke-width="1.5"></path>
        <path d="M486.92 569.53L414.65 545.77" stroke="hsl(228.5, 77.2%, 51.5%)" stroke-width="1.5"></path>
        <path d="M-19.28 492.21L-19.28 492.21" stroke="hsl(228.5, 77.2%, 51.5%)" stroke-width="1.5"></path>
        <path d="M-19.28 492.21L-19.9 551.87" stroke="hsl(228.5, 77.2%, 51.5%)" stroke-width="1.5"></path>
        <path d="M-19.28 492.21L35.76 553.45" stroke="hsl(228.5, 77.2%, 51.5%)" stroke-width="1.5"></path>
        <path d="M-19.9 551.87L-19.9 551.87" stroke="hsl(228.5, 77.2%, 51.5%)" stroke-width="1.5"></path>
        <path d="M-19.9 551.87L35.76 553.45" stroke="hsl(228.5, 77.2%, 51.5%)" stroke-width="1.5"></path>
        <path d="M-19.9 551.87L53.87 631.67" stroke="hsl(228.5, 77.2%, 51.5%)" stroke-width="1.5"></path>
        <path d="M35.76 553.45L35.76 553.45" stroke="hsl(228.5, 77.2%, 51.5%)" stroke-width="1.5"></path>
        <path d="M35.76 553.45L100.1 544.71" stroke="hsl(228.5, 77.2%, 51.5%)" stroke-width="1.5"></path>
        <path d="M53.87 631.67L53.87 631.67" stroke="hsl(228.5, 77.2%, 51.5%)" stroke-width="1.5"></path>
        <path d="M53.87 631.67L35.76 553.45" stroke="hsl(228.5, 77.2%, 51.5%)" stroke-width="1.5"></path>
        <path d="M100.1 544.71L100.1 544.71" stroke="hsl(228.5, 77.2%, 51.5%)" stroke-width="1.5"></path>
        <path d="M100.1 544.71L53.87 631.67" stroke="hsl(228.5, 77.2%, 51.5%)" stroke-width="1.5"></path>
        <path d="M194.55 408.92L194.55 408.92" stroke="hsl(228.5, 77.2%, 51.5%)" stroke-width="1.5"></path>
        <path d="M194.55 408.92L271.27 400.67" stroke="hsl(228.5, 77.2%, 51.5%)" stroke-width="1.5"></path>
        <path d="M180.12 646.85L180.12 646.85" stroke="hsl(228.5, 77.2%, 51.5%)" stroke-width="1.5"></path>
        <path d="M180.12 646.85L268.89 630.65" stroke="hsl(228.5, 77.2%, 51.5%)" stroke-width="1.5"></path>
        <path d="M180.12 646.85L53.87 631.67" stroke="hsl(228.5, 77.2%, 51.5%)" stroke-width="1.5"></path>
        <path d="M180.12 646.85L100.1 544.71" stroke="hsl(228.5, 77.2%, 51.5%)" stroke-width="1.5"></path>
        <path d="M275.8 340.21L275.8 340.21" stroke="hsl(228.5, 77.2%, 51.5%)" stroke-width="1.5"></path>
        <path d="M275.8 340.21L331.46 337.6" stroke="hsl(228.5, 77.2%, 51.5%)" stroke-width="1.5"></path>
        <path d="M275.8 340.21L271.27 400.67" stroke="hsl(228.5, 77.2%, 51.5%)" stroke-width="1.5"></path>
        <path d="M275.8 340.21L331.33 411.02" stroke="hsl(228.5, 77.2%, 51.5%)" stroke-width="1.5"></path>
        <path d="M275.8 340.21L194.55 408.92" stroke="hsl(228.5, 77.2%, 51.5%)" stroke-width="1.5"></path>
        <path d="M275.8 340.21L355.28 247.55" stroke="hsl(228.5, 77.2%, 51.5%)" stroke-width="1.5"></path>
        <path d="M275.8 340.21L249.47 469.37" stroke="hsl(228.5, 77.2%, 51.5%)" stroke-width="1.5"></path>
        <path d="M271.27 400.67L271.27 400.67" stroke="hsl(228.5, 77.2%, 51.5%)" stroke-width="1.5"></path>
        <path d="M271.27 400.67L331.33 411.02" stroke="hsl(228.5, 77.2%, 51.5%)" stroke-width="1.5"></path>
        <path d="M271.27 400.67L249.47 469.37" stroke="hsl(228.5, 77.2%, 51.5%)" stroke-width="1.5"></path>
        <path d="M271.27 400.67L331.46 337.6" stroke="hsl(228.5, 77.2%, 51.5%)" stroke-width="1.5"></path>
        <path d="M271.27 400.67L327.19 480.14" stroke="hsl(228.5, 77.2%, 51.5%)" stroke-width="1.5"></path>
        <path d="M249.47 469.37L249.47 469.37" stroke="hsl(228.5, 77.2%, 51.5%)" stroke-width="1.5"></path>
        <path d="M268.89 630.65L268.89 630.65" stroke="hsl(228.5, 77.2%, 51.5%)" stroke-width="1.5"></path>
        <path d="M268.89 630.65L332.06 648.86" stroke="hsl(228.5, 77.2%, 51.5%)" stroke-width="1.5"></path>
        <path d="M268.89 630.65L326.21 560.74" stroke="hsl(228.5, 77.2%, 51.5%)" stroke-width="1.5"></path>
        <path d="M268.89 630.65L198.11 558.84" stroke="hsl(228.5, 77.2%, 51.5%)" stroke-width="1.5"></path>
        <path d="M355.57 104.1L355.57 104.1" stroke="hsl(228.5, 77.2%, 51.5%)" stroke-width="1.5"></path>
        <path d="M355.57 104.1L335.8 181.79" stroke="hsl(228.5, 77.2%, 51.5%)" stroke-width="1.5"></path>
        <path d="M335.8 181.79L335.8 181.79" stroke="hsl(228.5, 77.2%, 51.5%)" stroke-width="1.5"></path>
        <path d="M335.8 181.79L355.28 247.55" stroke="hsl(228.5, 77.2%, 51.5%)" stroke-width="1.5"></path>
        <path d="M355.28 247.55L355.28 247.55" stroke="hsl(228.5, 77.2%, 51.5%)" stroke-width="1.5"></path>
        <path d="M355.28 247.55L396.85 274.45" stroke="hsl(228.5, 77.2%, 51.5%)" stroke-width="1.5"></path>
        <path d="M331.46 337.6L331.46 337.6" stroke="hsl(228.5, 77.2%, 51.5%)" stroke-width="1.5"></path>
        <path d="M331.46 337.6L331.33 411.02" stroke="hsl(228.5, 77.2%, 51.5%)" stroke-width="1.5"></path>
        <path d="M331.46 337.6L415.11 345.94" stroke="hsl(228.5, 77.2%, 51.5%)" stroke-width="1.5"></path>
        <path d="M331.46 337.6L396.85 274.45" stroke="hsl(228.5, 77.2%, 51.5%)" stroke-width="1.5"></path>
        <path d="M331.33 411.02L331.33 411.02" stroke="hsl(228.5, 77.2%, 51.5%)" stroke-width="1.5"></path>
        <path d="M331.33 411.02L327.19 480.14" stroke="hsl(228.5, 77.2%, 51.5%)" stroke-width="1.5"></path>
        <path d="M331.33 411.02L400.51 421.89" stroke="hsl(228.5, 77.2%, 51.5%)" stroke-width="1.5"></path>
        <path d="M327.19 480.14L327.19 480.14" stroke="hsl(228.5, 77.2%, 51.5%)" stroke-width="1.5"></path>
        <path d="M327.19 480.14L249.47 469.37" stroke="hsl(228.5, 77.2%, 51.5%)" stroke-width="1.5"></path>
        <path d="M327.19 480.14L326.21 560.74" stroke="hsl(228.5, 77.2%, 51.5%)" stroke-width="1.5"></path>
        <path d="M327.19 480.14L400.51 421.89" stroke="hsl(228.5, 77.2%, 51.5%)" stroke-width="1.5"></path>
        <path d="M327.19 480.14L428.81 478.52" stroke="hsl(228.5, 77.2%, 51.5%)" stroke-width="1.5"></path>
        <path d="M326.21 560.74L326.21 560.74" stroke="hsl(228.5, 77.2%, 51.5%)" stroke-width="1.5"></path>
        <path d="M326.21 560.74L332.06 648.86" stroke="hsl(228.5, 77.2%, 51.5%)" stroke-width="1.5"></path>
        <path d="M326.21 560.74L414.65 545.77" stroke="hsl(228.5, 77.2%, 51.5%)" stroke-width="1.5"></path>
        <path d="M332.06 648.86L332.06 648.86" stroke="hsl(228.5, 77.2%, 51.5%)" stroke-width="1.5"></path>
        <path d="M332.06 648.86L395.33 625.28" stroke="hsl(228.5, 77.2%, 51.5%)" stroke-width="1.5"></path>
        <path d="M404.63 -35.24L404.63 -35.24" stroke="hsl(228.5, 77.2%, 51.5%)" stroke-width="1.5"></path>
        <path d="M404.63 -35.24L430.82 20.66" stroke="hsl(228.5, 77.2%, 51.5%)" stroke-width="1.5"></path>
        <path d="M404.63 -35.24L484.28 -33.7" stroke="hsl(228.5, 77.2%, 51.5%)" stroke-width="1.5"></path>
        <path d="M404.63 -35.24L473.36 44.23" stroke="hsl(228.5, 77.2%, 51.5%)" stroke-width="1.5"></path>
        <path d="M404.63 -35.24L355.57 104.1" stroke="hsl(228.5, 77.2%, 51.5%)" stroke-width="1.5"></path>
        <path d="M404.63 -35.24L428.03 129.23" stroke="hsl(228.5, 77.2%, 51.5%)" stroke-width="1.5"></path>
        <path d="M404.63 -35.24L335.8 181.79" stroke="hsl(228.5, 77.2%, 51.5%)" stroke-width="1.5"></path>
        <path d="M430.82 20.66L430.82 20.66" stroke="hsl(228.5, 77.2%, 51.5%)" stroke-width="1.5"></path>
        <path d="M430.82 20.66L473.36 44.23" stroke="hsl(228.5, 77.2%, 51.5%)" stroke-width="1.5"></path>
        <path d="M430.82 20.66L484.28 -33.7" stroke="hsl(228.5, 77.2%, 51.5%)" stroke-width="1.5"></path>
        <path d="M430.82 20.66L428.03 129.23" stroke="hsl(228.5, 77.2%, 51.5%)" stroke-width="1.5"></path>
        <path d="M430.82 20.66L355.57 104.1" stroke="hsl(228.5, 77.2%, 51.5%)" stroke-width="1.5"></path>
        <path d="M430.82 20.66L492.5 176.98" stroke="hsl(228.5, 77.2%, 51.5%)" stroke-width="1.5"></path>
        <path d="M396.85 274.45L396.85 274.45" stroke="hsl(228.5, 77.2%, 51.5%)" stroke-width="1.5"></path>
        <path d="M396.85 274.45L415.11 345.94" stroke="hsl(228.5, 77.2%, 51.5%)" stroke-width="1.5"></path>
        <path d="M396.85 274.45L479.6 339.25" stroke="hsl(228.5, 77.2%, 51.5%)" stroke-width="1.5"></path>
        <path d="M396.85 274.45L501.1 259.51" stroke="hsl(228.5, 77.2%, 51.5%)" stroke-width="1.5"></path>
        <path d="M415.11 345.94L415.11 345.94" stroke="hsl(228.5, 77.2%, 51.5%)" stroke-width="1.5"></path>
        <path d="M415.11 345.94L479.6 339.25" stroke="hsl(228.5, 77.2%, 51.5%)" stroke-width="1.5"></path>
        <path d="M400.51 421.89L400.51 421.89" stroke="hsl(228.5, 77.2%, 51.5%)" stroke-width="1.5"></path>
        <path d="M400.51 421.89L428.81 478.52" stroke="hsl(228.5, 77.2%, 51.5%)" stroke-width="1.5"></path>
        <path d="M400.51 421.89L415.11 345.94" stroke="hsl(228.5, 77.2%, 51.5%)" stroke-width="1.5"></path>
        <path d="M400.51 421.89L484.91 415.85" stroke="hsl(228.5, 77.2%, 51.5%)" stroke-width="1.5"></path>
        <path d="M400.51 421.89L331.46 337.6" stroke="hsl(228.5, 77.2%, 51.5%)" stroke-width="1.5"></path>
        <path d="M428.81 478.52L428.81 478.52" stroke="hsl(228.5, 77.2%, 51.5%)" stroke-width="1.5"></path>
        <path d="M428.81 478.52L414.65 545.77" stroke="hsl(228.5, 77.2%, 51.5%)" stroke-width="1.5"></path>
        <path d="M428.81 478.52L504.19 502.85" stroke="hsl(228.5, 77.2%, 51.5%)" stroke-width="1.5"></path>
        <path d="M428.81 478.52L484.91 415.85" stroke="hsl(228.5, 77.2%, 51.5%)" stroke-width="1.5"></path>
        <path d="M414.65 545.77L414.65 545.77" stroke="hsl(228.5, 77.2%, 51.5%)" stroke-width="1.5"></path>
        <path d="M414.65 545.77L395.33 625.28" stroke="hsl(228.5, 77.2%, 51.5%)" stroke-width="1.5"></path>
        <path d="M395.33 625.28L395.33 625.28" stroke="hsl(228.5, 77.2%, 51.5%)" stroke-width="1.5"></path>
        <path d="M395.33 625.28L470.78 633.07" stroke="hsl(228.5, 77.2%, 51.5%)" stroke-width="1.5"></path>
        <path d="M395.33 625.28L326.21 560.74" stroke="hsl(228.5, 77.2%, 51.5%)" stroke-width="1.5"></path>
        <path d="M395.33 625.28L486.92 569.53" stroke="hsl(228.5, 77.2%, 51.5%)" stroke-width="1.5"></path>
        <path d="M395.33 625.28L268.89 630.65" stroke="hsl(228.5, 77.2%, 51.5%)" stroke-width="1.5"></path>
        <path d="M484.28 -33.7L484.28 -33.7" stroke="hsl(228.5, 77.2%, 51.5%)" stroke-width="1.5"></path>
        <path d="M484.28 -33.7L473.36 44.23" stroke="hsl(228.5, 77.2%, 51.5%)" stroke-width="1.5"></path>
        <path d="M473.36 44.23L473.36 44.23" stroke="hsl(228.5, 77.2%, 51.5%)" stroke-width="1.5"></path>
        <path d="M473.36 44.23L428.03 129.23" stroke="hsl(228.5, 77.2%, 51.5%)" stroke-width="1.5"></path>
        <path d="M492.5 176.98L492.5 176.98" stroke="hsl(228.5, 77.2%, 51.5%)" stroke-width="1.5"></path>
        <path d="M492.5 176.98L428.03 129.23" stroke="hsl(228.5, 77.2%, 51.5%)" stroke-width="1.5"></path>
        <path d="M492.5 176.98L501.1 259.51" stroke="hsl(228.5, 77.2%, 51.5%)" stroke-width="1.5"></path>
        <path d="M492.5 176.98L473.36 44.23" stroke="hsl(228.5, 77.2%, 51.5%)" stroke-width="1.5"></path>
        <path d="M492.5 176.98L396.85 274.45" stroke="hsl(228.5, 77.2%, 51.5%)" stroke-width="1.5"></path>
        <path d="M492.5 176.98L355.28 247.55" stroke="hsl(228.5, 77.2%, 51.5%)" stroke-width="1.5"></path>
        <path d="M501.1 259.51L501.1 259.51" stroke="hsl(228.5, 77.2%, 51.5%)" stroke-width="1.5"></path>
        <path d="M501.1 259.51L479.6 339.25" stroke="hsl(228.5, 77.2%, 51.5%)" stroke-width="1.5"></path>
        <path d="M501.1 259.51L417.81 199.37" stroke="hsl(228.5, 77.2%, 51.5%)" stroke-width="1.5"></path>
        <path d="M479.6 339.25L479.6 339.25" stroke="hsl(228.5, 77.2%, 51.5%)" stroke-width="1.5"></path>
        <path d="M479.6 339.25L484.91 415.85" stroke="hsl(228.5, 77.2%, 51.5%)" stroke-width="1.5"></path>
        <path d="M484.91 415.85L484.91 415.85" stroke="hsl(228.5, 77.2%, 51.5%)" stroke-width="1.5"></path>
        <path d="M484.91 415.85L504.19 502.85" stroke="hsl(228.5, 77.2%, 51.5%)" stroke-width="1.5"></path>
        <path d="M504.19 502.85L504.19 502.85" stroke="hsl(228.5, 77.2%, 51.5%)" stroke-width="1.5"></path>
        <path d="M504.19 502.85L414.65 545.77" stroke="hsl(228.5, 77.2%, 51.5%)" stroke-width="1.5"></path>
        <path d="M470.78 633.07L470.78 633.07" stroke="hsl(228.5, 77.2%, 51.5%)" stroke-width="1.5"></path>
        <path d="M470.78 633.07L414.65 545.77" stroke="hsl(228.5, 77.2%, 51.5%)" stroke-width="1.5"></path>
        <path d="M470.78 633.07L504.19 502.85" stroke="hsl(228.5, 77.2%, 51.5%)" stroke-width="1.5"></path>
        <path d="M470.78 633.07L332.06 648.86" stroke="hsl(228.5, 77.2%, 51.5%)" stroke-width="1.5"></path>
        <path d="M470.78 633.07L428.81 478.52" stroke="hsl(228.5, 77.2%, 51.5%)" stroke-width="1.5"></path>
        <circle r="25" cx="-54.63" cy="656.19" fill="url(&quot;#SvgjsRadialGradient1061&quot;)"></circle>
        <circle r="25" cx="109.08" cy="477.03" fill="url(&quot;#SvgjsRadialGradient1061&quot;)"></circle>
        <circle r="25" cx="125.46" cy="642.08" fill="url(&quot;#SvgjsRadialGradient1061&quot;)"></circle>
        <circle r="25" cx="193.77" cy="487.62" fill="url(&quot;#SvgjsRadialGradient1061&quot;)"></circle>
        <circle r="25" cx="198.11" cy="558.84" fill="url(&quot;#SvgjsRadialGradient1061&quot;)"></circle>
        <circle r="25" cx="428.03" cy="129.23" fill="url(&quot;#SvgjsRadialGradient1061&quot;)"></circle>
        <circle r="25" cx="417.81" cy="199.37" fill="url(&quot;#SvgjsRadialGradient1061&quot;)"></circle>
        <circle r="25" cx="486.92" cy="569.53" fill="url(&quot;#SvgjsRadialGradient1061&quot;)"></circle>
        <circle r="5" cx="-19.28" cy="492.21" fill="#8b9ad9"></circle>
        <circle r="5" cx="-19.9" cy="551.87" fill="#8b9ad9"></circle>
        <circle r="5" cx="35.76" cy="553.45" fill="#8b9ad9"></circle>
        <circle r="5" cx="53.87" cy="631.67" fill="#8b9ad9"></circle>
        <circle r="5" cx="100.1" cy="544.71" fill="#8b9ad9"></circle>
        <circle r="5" cx="194.55" cy="408.92" fill="#8b9ad9"></circle>
        <circle r="5" cx="180.12" cy="646.85" fill="#8b9ad9"></circle>
        <circle r="5" cx="275.8" cy="340.21" fill="#8b9ad9"></circle>
        <circle r="5" cx="271.27" cy="400.67" fill="#8b9ad9"></circle>
        <circle r="5" cx="249.47" cy="469.37" fill="#8b9ad9"></circle>
        <circle r="5" cx="268.89" cy="630.65" fill="#8b9ad9"></circle>
        <circle r="5" cx="355.57" cy="104.1" fill="#8b9ad9"></circle>
        <circle r="5" cx="335.8" cy="181.79" fill="#8b9ad9"></circle>
        <circle r="5" cx="355.28" cy="247.55" fill="#8b9ad9"></circle>
        <circle r="5" cx="331.46" cy="337.6" fill="#8b9ad9"></circle>
        <circle r="5" cx="331.33" cy="411.02" fill="#8b9ad9"></circle>
        <circle r="5" cx="327.19" cy="480.14" fill="#8b9ad9"></circle>
        <circle r="5" cx="326.21" cy="560.74" fill="#8b9ad9"></circle>
        <circle r="5" cx="332.06" cy="648.86" fill="#8b9ad9"></circle>
        <circle r="5" cx="404.63" cy="-35.24" fill="#8b9ad9"></circle>
        <circle r="5" cx="430.82" cy="20.66" fill="#8b9ad9"></circle>
        <circle r="5" cx="396.85" cy="274.45" fill="#8b9ad9"></circle>
        <circle r="5" cx="415.11" cy="345.94" fill="#8b9ad9"></circle>
        <circle r="5" cx="400.51" cy="421.89" fill="#8b9ad9"></circle>
        <circle r="5" cx="428.81" cy="478.52" fill="#8b9ad9"></circle>
        <circle r="5" cx="414.65" cy="545.77" fill="#8b9ad9"></circle>
        <circle r="5" cx="395.33" cy="625.28" fill="#8b9ad9"></circle>
        <circle r="5" cx="484.28" cy="-33.7" fill="#8b9ad9"></circle>
        <circle r="5" cx="473.36" cy="44.23" fill="#8b9ad9"></circle>
        <circle r="5" cx="492.5" cy="176.98" fill="#8b9ad9"></circle>
        <circle r="5" cx="501.1" cy="259.51" fill="#8b9ad9"></circle>
        <circle r="5" cx="479.6" cy="339.25" fill="#8b9ad9"></circle>
        <circle r="5" cx="484.91" cy="415.85" fill="#8b9ad9"></circle>
        <circle r="5" cx="504.19" cy="502.85" fill="#8b9ad9"></circle>
        <circle r="5" cx="470.78" cy="633.07" fill="#8b9ad9"></circle>
    </g>
    <defs>
        <mask id="SvgjsMask1060">
            <rect width="450" height="600" fill="#ffffff"></rect>
        </mask>
        <radialGradient id="SvgjsRadialGradient1061">
            <stop stop-color="#ffffff" offset="0.1"></stop>
            <stop stop-color="#1735b3" offset="0.2"></stop>
            <stop stop-color="rgba(23, 53, 179, 0)" offset="1"></stop>
        </radialGradient>
    </defs>
</svg>